<svg width="24" height="24" viewBox="0 0 24 24" fill="none" xmlns="http://www.w3.org/2000/svg">
<path d="M19 3H5C3.897 3 3 3.897 3 5V19C3 20.103 3.897 21 5 21H19C20.103 21 21 20.103 21 19V5C21 3.897 20.103 3 19 3ZM6.277 7.578C6.555 7.211 6.976 6.982 7.435 7.001C8.121 7.029 8.5 7.522 8.5 7.522C8.5 7.522 8.879 7.029 9.564 7.001C10.024 6.982 10.445 7.211 10.722 7.578C11.688 8.854 9.859 10.347 9.429 10.748C9.172 10.988 8.854 11.273 8.665 11.441C8.57 11.526 8.429 11.526 8.334 11.441C8.144 11.272 7.827 10.987 7.57 10.748C7.14 10.347 5.311 8.854 6.277 7.578ZM17 17H7C6.448 17 6 16.552 6 16C6 15.448 6.448 15 7 15H17C17.552 15 18 15.448 18 16C18 16.552 17.552 17 17 17ZM17 13H13C12.448 13 12 12.552 12 12C12 11.448 12.448 11 13 11H17C17.552 11 18 11.448 18 12C18 12.552 17.552 13 17 13ZM17 9H15C14.448 9 14 8.552 14 8C14 7.448 14.448 7 15 7H17C17.552 7 18 7.448 18 8C18 8.552 17.552 9 17 9Z" fill="#E5E5E5"/>
</svg>
