<svg width="16" height="16" viewBox="0 0 16 16" fill="none" xmlns="http://www.w3.org/2000/svg">
<path fill-rule="evenodd" clip-rule="evenodd" d="M12.024 3.797L4.49903 7.56L4.05103 6.665L11.576 2.903L12.024 3.797ZM11.576 13.097L4.05103 9.335L4.50003 8.44L12.025 12.203L11.577 13.097H11.576Z" fill="black"/>
<path fill-rule="evenodd" clip-rule="evenodd" d="M13.5 5C14.163 5 14.7989 4.73661 15.2678 4.26777C15.7366 3.79893 16 3.16304 16 2.5C16 1.83696 15.7366 1.20107 15.2678 0.732233C14.7989 0.263392 14.163 0 13.5 0C12.837 0 12.2011 0.263392 11.7322 0.732233C11.2634 1.20107 11 1.83696 11 2.5C11 3.16304 11.2634 3.79893 11.7322 4.26777C12.2011 4.73661 12.837 5 13.5 5ZM13.5 16C14.163 16 14.7989 15.7366 15.2678 15.2678C15.7366 14.7989 16 14.163 16 13.5C16 12.837 15.7366 12.2011 15.2678 11.7322C14.7989 11.2634 14.163 11 13.5 11C12.837 11 12.2011 11.2634 11.7322 11.7322C11.2634 12.2011 11 12.837 11 13.5C11 14.163 11.2634 14.7989 11.7322 15.2678C12.2011 15.7366 12.837 16 13.5 16ZM2.5 10.5C3.16304 10.5 3.79893 10.2366 4.26777 9.76777C4.73661 9.29893 5 8.66304 5 8C5 7.33696 4.73661 6.70107 4.26777 6.23223C3.79893 5.76339 3.16304 5.5 2.5 5.5C1.83696 5.5 1.20107 5.76339 0.732233 6.23223C0.263392 6.70107 0 7.33696 0 8C0 8.66304 0.263392 9.29893 0.732233 9.76777C1.20107 10.2366 1.83696 10.5 2.5 10.5Z" fill="black"/>
</svg>
