<svg width="24" height="24" viewBox="0 0 24 24" fill="none" xmlns="http://www.w3.org/2000/svg">
<path d="M21.579 6.855C21.719 6.39 21.579 6.049 20.917 6.049H18.724C18.166 6.049 17.911 6.344 17.771 6.668C17.771 6.668 16.656 9.387 15.076 11.15C14.566 11.663 14.333 11.825 14.055 11.825C13.916 11.825 13.714 11.663 13.714 11.198V6.855C13.714 6.297 13.553 6.049 13.088 6.049H9.642C9.294 6.049 9.084 6.307 9.084 6.553C9.084 7.081 9.874 7.203 9.955 8.691V11.919C9.955 12.626 9.828 12.755 9.548 12.755C8.805 12.755 6.997 10.026 5.924 6.902C5.715 6.295 5.504 6.05 4.944 6.05H2.752C2.125 6.05 2 6.345 2 6.669C2 7.251 2.743 10.131 5.461 13.94C7.273 16.541 9.824 17.951 12.148 17.951C13.541 17.951 13.713 17.638 13.713 17.098V15.132C13.713 14.506 13.846 14.38 14.287 14.38C14.611 14.38 15.169 14.544 16.47 15.797C17.956 17.283 18.202 17.95 19.037 17.95H21.229C21.855 17.95 22.168 17.637 21.988 17.019C21.791 16.404 21.081 15.509 20.139 14.45C19.627 13.846 18.862 13.196 18.629 12.871C18.304 12.452 18.398 12.267 18.629 11.895C18.63 11.896 21.301 8.134 21.579 6.855Z" fill="white"/>
</svg>
